<?xml version="1.0" encoding="utf-8"?>
<!DOCTYPE svg PUBLIC "-//W3C//DTD SVG 1.1//EN" "http://www.w3.org/Graphics/SVG/1.1/DTD/svg11.dtd">
<svg version="1.1" xmlns="http://www.w3.org/2000/svg" xmlns:xlink="http://www.w3.org/1999/xlink" x="0px" y="0px" viewBox="0 0 1000 1000" enable-background="new 0 0 1000 1000" xml:space="preserve">
<g><g transform="translate(0.000000,511.000000) scale(0.100000,-0.100000)"><path d="M2730.3,4989.8c-494.5-58-996.6-262.4-1425.5-575.2c-194.3-141.3-539.9-499.6-676.2-701.4C13.1,2807.4-70.2,1667,406.7,690.6C918.8-353.9,1935.6-992.3,3096.2-992.3c673.6,0,1261.5,189.2,1781.2,575.3l179.1,131.2l663.5-663.5l666.1-666.1L6255-1754.2c-229.6-242.2-328-108.5,1211-1647.5c739.2-739.2,1375-1354.9,1412.9-1372.5c53-22.7,88.3-22.7,141.3,0c103.5,42.9,855.3,807.4,875.5,888.1c10.1,42.9,2.5,95.9-22.7,138.8c-20.2,40.4-635.8,671.1-1370,1405.3C6996.7-840.9,7102.7-921.6,6898.3-1110.8l-108.5-100.9l-661,661c-363.3,363.3-661,671.1-661,681.2c0,10.1,42.9,78.2,98.4,151.4c547.5,739.2,693.8,1836.8,368.3,2742.5C5460.2,4341.4,4130.6,5156.3,2730.3,4989.8z M3676.5,4296c845.2-224.5,1493.6-873,1718.2-1713.1c78.2-295.2,80.7-822.5,2.5-1132.8c-68.1-270-217-595.4-368.3-804.8c-128.7-181.7-428.9-476.9-603-595.4c-191.7-128.7-519.7-275-764.5-335.6c-310.3-78.2-837.6-75.7-1132.8,2.5c-840.2,224.5-1493.6,878-1713.1,1718.2c-70.6,267.4-80.7,749.3-20.2,1034.4c191.8,923.4,903.2,1645,1821.6,1844.3C2886.8,4374.2,3424.2,4364.1,3676.5,4296z"/><path d="M1617.7,3448.2c-189.2-199.3-295.2-353.2-401.2-582.8c-360.8-787.2-189.2-1715.6,428.9-2326.2C1948.2,239,2177.8,120.4,2223.2,239c22.7,60.6-10.1,108.5-143.8,189.2c-189.2,116.1-471.8,411.2-592.9,615.6c-55.5,98.4-133.7,267.4-174.1,378.5c-63.1,186.7-68.1,232.1-68.1,580.3c0,345.7,5,396.1,68.1,580.3c90.8,272.5,224.6,492,428.9,709c171.6,181.7,194.3,227.1,138.8,282.6C1822.1,3632.4,1766.5,3604.7,1617.7,3448.2z"/></g></g>
</svg>