<?xml version="1.0" encoding="utf-8"?>
<!-- Generator: Adobe Illustrator 16.0.0, SVG Export Plug-In . SVG Version: 6.00 Build 0)  -->
<!DOCTYPE svg PUBLIC "-//W3C//DTD SVG 1.1//EN" "http://www.w3.org/Graphics/SVG/1.1/DTD/svg11.dtd">
<svg version="1.1" id="Layer_1" xmlns="http://www.w3.org/2000/svg" xmlns:xlink="http://www.w3.org/1999/xlink" x="0px" y="0px"
	 width="88.5px" height="89.542px" viewBox="0 0 88.5 89.542" enable-background="new 0 0 88.5 89.542" xml:space="preserve">
<path fill="#0F97D5" d="M44.438,89.454c-0.002,0-0.002,0-0.002,0c-5.794,0-11.463-1.176-16.851-3.49
	C5.404,76.428-5.074,50.172,4.227,27.435C11.045,10.769,26.843,0,44.474,0c5.793,0,11.463,1.175,16.851,3.489
	c10.745,4.62,19.093,13.251,23.505,24.306c4.412,11.055,4.361,23.208-0.145,34.223C77.866,78.684,62.067,89.454,44.438,89.454z
	 M44.473,1.671c-16.971,0-32.179,10.367-38.741,26.408C-3.221,49.967,6.865,75.241,28.217,84.42
	c5.186,2.229,10.643,3.359,16.22,3.359c16.972,0,32.178-10.367,38.742-26.41c4.338-10.602,4.388-22.301,0.141-32.942
	C79.072,17.787,71.036,9.478,60.692,5.032C55.507,2.802,50.05,1.671,44.473,1.671z"/>
<path fill="#0F97D5" d="M31.608,78.116l-0.755-0.318l-2.928,7.289l0.755,0.318L31.608,78.116z"/>
<path fill="#0F97D5" d="M61.171,4.361l-0.754-0.317l-2.921,7.293l0.755,0.317L61.171,4.361z"/>
<path fill="#0F97D5" d="M84.202,60.963l-7.113-2.998l-0.31,0.771l7.112,2.998L84.202,60.963z"/>
<path fill="#0F97D5" d="M12.294,30.673l-7.112-2.997l-0.31,0.773l7.112,2.997L12.294,30.673z"/>
<path fill="#0F97D5" d="M31.022,78.407L11.673,30.878L58.04,11.044l19.35,47.528l-0.377,0.16L31.022,78.407z M12.739,31.328
	l18.72,45.985l44.863-19.189l-18.72-45.985L12.739,31.328z"/>
<path fill="#0F97D5" d="M44.873,0.77H44.06v16.128h0.813V0.77z"/>
<path fill="#0F97D5" d="M26.081,25.434L14.649,13.569l-0.58,0.587L25.5,26.021L26.081,25.434z"/>
<path fill="#0F97D5" d="M74.923,14.073l-0.579-0.588L63.418,24.783l0.579,0.588L74.923,14.073z"/>
<path fill="#0F97D5" d="M17.451,44.323H1.957v0.836h15.494V44.323z"/>
<path fill="#0F97D5" d="M58.212,78.334l-0.377-0.158L11.745,58.75l19.105-47.634l0.376,0.159L77.317,30.7L58.212,78.334z
	 M12.809,58.293l44.959,18.949l18.485-46.087L31.294,12.207L12.809,58.293z"/>
<path fill="#0F97D5" d="M61.36,85.018l-2.963-7.275l-0.752,0.32l2.963,7.277L61.36,85.018z"/>
<path fill="#0F97D5" d="M31.407,11.429l-2.962-7.276l-0.752,0.322l2.962,7.276L31.407,11.429z"/>
<path fill="#0F97D5" d="M84.118,28.265l-0.314-0.771l-7.098,3.034l0.313,0.771L84.118,28.265z"/>
<path fill="#0F97D5" d="M12.34,58.94l-0.314-0.771l-7.097,3.039l0.314,0.77L12.34,58.94z"/>
<path fill="#0F97D5" d="M44.97,71.768h-0.812v16.891h0.812V71.768z"/>
<path fill="#0F97D5" d="M74.992,75.305L63.562,63.442l-0.58,0.586l11.431,11.865L74.992,75.305z"/>
<path fill="#0F97D5" d="M25.873,64.807l-0.57-0.598L14.132,75.401l0.57,0.598L25.873,64.807z"/>
<path fill="#0F97D5" d="M87.175,44.323H71.683v0.836h15.492V44.323z"/>
<path fill="#0F97D5" d="M14.737,13.896l-0.807-0.107l-2.198,17.417l0.807,0.107L14.737,13.896z"/>
<path fill="#0F97D5" d="M12.455,31.552l-0.648-0.508L1.73,44.592L2.378,45.1L12.455,31.552z"/>
<path fill="#0F97D5" d="M12.491,58.301L2.37,44.557l-0.649,0.506l10.121,13.744L12.491,58.301z"/>
<path fill="#0F97D5" d="M14.804,75.625l-2.222-17.117l-0.806,0.109l2.222,17.117L14.804,75.625z"/>
<path fill="#0F97D5" d="M30.875,77.272l-16.412-2.014l-0.097,0.828l16.412,2.016L30.875,77.272z"/>
<path fill="#0F97D5" d="M44.949,88.077L31.083,77.329l-0.492,0.666l13.867,10.748L44.949,88.077z"/>
<path fill="#0F97D5" d="M58.267,78.225l-0.498-0.662L44.433,88.116l0.499,0.664L58.267,78.225z"/>
<path fill="#0F97D5" d="M74.721,75.809l-0.116-0.826L57.976,77.43l0.116,0.826L74.721,75.809z"/>
<path fill="#0F97D5" d="M77.083,58.817l-0.808-0.104l-2.038,16.648l0.807,0.104L77.083,58.817z"/>
<path fill="#0F97D5" d="M86.903,45.047l-0.66-0.491l-9.91,13.966l0.66,0.492L86.903,45.047z"/>
<path fill="#0F97D5" d="M86.911,44.563l-9.728-13.908l-0.663,0.487l9.729,13.907L86.911,44.563z"/>
<path fill="#0F97D5" d="M77.242,30.844l-2.222-17.118l-0.807,0.11l2.223,17.117L77.242,30.844z"/>
<path fill="#0F97D5" d="M74.683,13.351l-16.48-2.186l-0.105,0.828l16.482,2.186L74.683,13.351z"/>
<path fill="#0F97D5" d="M58.429,11.249L44.633,0.675l-0.488,0.669L57.94,11.918L58.429,11.249z"/>
<path fill="#0F97D5" d="M44.638,1.347L44.13,0.693l-13.084,10.68l0.508,0.654L44.638,1.347z"/>
<path fill="#0F97D5" d="M31.339,12.134l-0.101-0.828l-16.946,2.158l0.1,0.828L31.339,12.134z"/>
</svg>
