<svg width="269" height="101" viewBox="0 0 269 101" fill="none" xmlns="http://www.w3.org/2000/svg">
<path d="M106.804 100.693H108.3V95.3908C108.3 94.8628 108.344 94.3568 108.476 93.8948C108.982 92.0688 110.61 90.7708 112.502 90.7708C114.636 90.7708 114.9 92.3108 114.9 94.0488V100.693H116.396V93.6528C116.396 90.9248 115.428 89.3628 112.7 89.3628C110.082 89.3628 108.674 91.1448 108.278 92.1568H108.234C108.234 92.1568 108.278 91.7608 108.278 91.2768V89.6268H106.804V100.693Z" fill="#0797D5"/>
<path d="M119.075 95.1708C119.075 98.5808 121.561 100.957 124.861 100.957C127.347 100.957 128.953 99.4168 128.953 99.4168L128.271 98.2728C128.271 98.2728 126.929 99.6148 124.905 99.6148C122.617 99.6148 120.681 98.0748 120.615 95.2368H129.107C129.107 95.2368 129.151 94.7308 129.151 94.4668C129.151 91.7168 127.589 89.3628 124.531 89.3628C121.539 89.3628 119.075 91.5408 119.075 95.1708ZM120.681 94.0048C121.033 91.7828 122.639 90.6168 124.487 90.6168C126.137 90.6168 127.545 91.6948 127.633 94.0048H120.681Z" fill="#0797D5"/>
<path d="M132.423 96.6668C132.423 100.363 134.997 100.781 136.273 100.781C136.669 100.781 136.911 100.737 136.911 100.737V99.3948C136.911 99.3948 136.713 99.4388 136.405 99.4388C135.569 99.4388 133.919 99.1088 133.919 96.5128V91.0128H136.691V89.7588H133.919V86.5688H132.445V89.7588H130.971V91.0128H132.423V96.6668Z" fill="#0797D5"/>
<path d="M141.684 100.693H143.312L146.018 92.8168C146.194 92.2668 146.348 91.6288 146.348 91.6288H146.392C146.392 91.6288 146.546 92.2668 146.744 92.8168L149.45 100.693H151.078L154.818 89.6268H153.234L150.55 97.8768C150.374 98.4268 150.22 99.0648 150.22 99.0648H150.176C150.176 99.0648 150.022 98.4048 149.846 97.8768L147.118 89.6708H145.644L142.916 97.8768C142.74 98.4048 142.586 99.0648 142.586 99.0648H142.542C142.542 99.0648 142.388 98.4048 142.212 97.8768L139.528 89.6268H137.944L141.684 100.693Z" fill="#0797D5"/>
<path d="M156.177 95.1048C156.177 98.4488 158.795 100.957 162.029 100.957C165.263 100.957 167.881 98.4488 167.881 95.1048C167.881 91.8268 165.263 89.3628 162.029 89.3628C158.795 89.3628 156.177 91.8268 156.177 95.1048ZM157.717 95.1048C157.717 92.5968 159.653 90.7268 162.029 90.7268C164.405 90.7268 166.341 92.5968 166.341 95.1048C166.341 97.6788 164.405 99.6148 162.029 99.6148C159.653 99.6148 157.717 97.6788 157.717 95.1048Z" fill="#0797D5"/>
<path d="M170.677 100.693H172.173V96.0288C172.173 95.3248 172.261 94.5768 172.481 93.8728C172.965 92.2448 174.131 91.0128 175.693 91.0128C175.979 91.0128 176.243 91.0568 176.243 91.0568V89.5828C176.243 89.5828 175.957 89.5168 175.649 89.5168C173.911 89.5168 172.679 90.7928 172.151 92.4648H172.107C172.107 92.4648 172.151 92.0688 172.151 91.5848V89.6268H170.677V100.693Z" fill="#0797D5"/>
<path d="M178.519 100.693H180.015V95.1488H181.797L185.493 100.693H187.275L183.051 94.4888V94.4448L186.901 89.6268H185.097L181.775 93.8508H180.015V85.2268H178.519V100.693Z" fill="#0797D5"/>
<path d="M250.837 76.4396C250.837 76.4396 253.876 80.1762 260.003 80.1762C264.662 80.1762 268.105 77.3212 268.105 73.1688C268.105 64.5527 254.18 66.5772 254.18 59.8288C254.18 56.4546 257.015 55.105 259.902 55.105C264.206 55.105 266.283 57.5452 266.283 57.5452L267.548 55.7798C267.548 55.7798 265.219 52.977 260.054 52.977C255.749 52.977 251.951 55.3651 251.951 59.9845C251.951 68.445 265.877 66.5772 265.877 73.1688C265.877 76.3873 263.143 78.0483 260.054 78.0483C255.041 78.0483 252.205 74.7786 252.205 74.7786L250.837 76.4396ZM225.012 66.4215C225.012 59.9845 229.873 55.105 235.899 55.105C241.925 55.105 246.786 59.9845 246.786 66.4215C246.786 73.0132 241.925 78.0483 235.899 78.0483C229.873 78.0472 225.012 73.0121 225.012 66.4215ZM222.783 66.4215C222.783 74.1549 228.658 80.1762 235.899 80.1762C243.141 80.1762 249.015 74.1549 249.015 66.4215C249.015 58.8427 243.141 52.977 235.899 52.977C228.658 52.976 222.783 58.8427 222.783 66.4215ZM216.551 79.5536H218.677V53.5996H216.551V79.5536ZM216.349 47.0069H218.88V43.218H216.349V47.0069ZM200.802 77.4257C195.384 77.4257 191.637 73.1688 191.637 66.1614C191.637 59.154 194.877 55.105 200.296 55.105C205.259 55.105 209.107 57.8043 209.107 66.1614C209.107 74.5697 205.259 77.4257 200.802 77.4257ZM192.65 86.5077L191.637 88.4288C194.118 89.7263 196.803 90.4533 199.587 90.4533C205.614 90.4533 211.183 87.3382 211.183 79.3969V53.5986H209.056V57.0762C209.056 57.6998 209.209 58.0623 209.209 58.0623H209.107C209.107 58.0623 207.487 52.976 200.296 52.976C193.713 52.976 189.409 58.0623 189.409 66.1603C189.409 74.2584 194.067 79.5525 200.651 79.5525C204.853 79.5525 207.639 77.4247 209.158 74.2584H209.259C209.259 74.2584 209.056 75.1923 209.056 76.3863V79.3969C209.056 85.6772 204.853 88.3254 199.435 88.3254C195.79 88.3265 192.65 86.5077 192.65 86.5077ZM167.852 72.4929C167.852 65.7456 177.069 65.7456 181.374 65.7456H182.994V67.1464C182.994 72.285 179.854 78.1507 174.335 78.1507C170.03 78.1517 167.852 75.2445 167.852 72.4929ZM165.625 72.6486C165.625 77.8394 170.131 80.1752 174.233 80.1752C180.816 80.1752 183.146 73.7903 183.095 73.7903H183.196C183.196 73.7903 182.994 74.7253 182.994 76.1261V79.5525H185.121V62.7861C185.121 56.2979 181.981 52.976 176.158 52.976C170.638 52.976 167.6 55.831 167.6 55.831L168.815 57.5954C168.815 57.5954 171.651 55.1039 176.056 55.1039C180.107 55.1039 182.994 57.0762 182.994 62.8384V63.7211H181.323C176.815 63.7211 165.625 63.8245 165.625 72.6486ZM156.813 74.3106C156.813 79.1901 160.308 79.7615 161.776 79.7615C162.232 79.7615 162.688 79.657 162.688 79.657V77.6325C162.688 77.6325 162.333 77.6848 161.928 77.6848C160.764 77.6848 158.94 77.2701 158.94 73.6358V43.218H156.813V74.3106V74.3106ZM131.191 64.188C132.102 58.1145 136.407 55.0005 141.065 55.0005C145.268 55.0005 148.965 57.8555 149.218 64.188H131.191ZM128.811 66.6283C128.811 74.882 134.736 80.1762 141.876 80.1762C147.345 80.1762 150.89 76.5952 150.89 76.5952L149.725 74.7786C149.725 74.7786 146.737 78.0483 141.876 78.0483C136.001 78.0483 131.04 73.7402 131.04 66.2136H151.345C151.345 66.2136 151.447 65.3831 151.447 64.8117C151.447 58.5314 148.003 52.977 141.116 52.977C134.635 52.976 128.811 57.8555 128.811 66.6283ZM107.397 62.4237V45.2948H116.764C121.93 45.2948 125.372 48.3577 125.372 53.8075C125.372 59.2574 121.93 62.4237 116.764 62.4237H107.397ZM105.219 79.5536H107.397V64.5004H116.866C123.044 64.5004 127.652 60.4002 127.652 53.8075C127.652 47.2148 123.044 43.218 116.866 43.218H105.219V79.5536Z" fill="#1A407B"/>
<path d="M43.6053 89.4525C43.6042 89.4525 43.6042 89.4525 43.6032 89.4525C37.8092 89.4525 32.14 88.2777 26.7527 85.9632C4.57093 76.4281 -5.90738 50.1724 3.3936 27.4348C10.212 10.7686 26.0101 0 43.6406 0C49.4336 0 55.1038 1.17484 60.4912 3.48933C71.2368 8.1087 79.584 16.7408 83.9968 27.7951C88.4086 38.8494 88.3567 51.0029 83.8513 62.0177C77.0328 78.6829 61.2348 89.4525 43.6053 89.4525ZM43.6396 1.67164C26.6684 1.67164 11.4611 12.0383 4.89854 28.0798C-4.05402 49.9666 6.03217 75.2405 27.384 84.4195C32.5695 86.6487 38.0266 87.7788 43.6032 87.7788C60.5754 87.7798 75.7817 77.4131 82.3453 61.3695C86.6833 50.7683 86.7332 39.0691 82.4857 28.4273C78.2393 17.7867 70.2029 9.47755 59.8599 5.03195C54.6732 2.80169 49.2162 1.67164 43.6396 1.67164Z" fill="#0797D5"/>
<path d="M30.7755 78.1153L30.0205 77.7966L27.0921 85.0858L27.8471 85.4045L30.7755 78.1153Z" fill="#0797D5"/>
<path d="M60.3376 4.36081L59.5833 4.04346L56.663 11.3367L57.4173 11.654L60.3376 4.36081Z" fill="#0797D5"/>
<path d="M83.3685 60.9626L76.2559 57.9644L75.9462 58.7363L83.0588 61.7345L83.3685 60.9626Z" fill="#0797D5"/>
<path d="M11.4613 30.6732L4.34888 27.6763L4.03887 28.4493L11.1513 31.4463L11.4613 30.6732Z" fill="#0797D5"/>
<path d="M30.1888 78.4056L10.8401 30.8782L57.2077 11.0447L76.5564 58.5731L76.1799 58.7331L30.1888 78.4056ZM11.9061 31.3281L30.6267 77.3129L75.4893 58.1233L56.7688 12.1385L11.9061 31.3281Z" fill="#0797D5"/>
<path d="M44.0401 0.769775H43.2268V16.8977H44.0401V0.769775Z" fill="#0797D5"/>
<path d="M25.2475 25.4339L13.8159 13.5691L13.2358 14.1564L24.6674 26.0212L25.2475 25.4339Z" fill="#0797D5"/>
<path d="M74.0898 14.0733L73.5107 13.4849L62.5851 24.7829L63.1642 25.3713L74.0898 14.0733Z" fill="#0797D5"/>
<path d="M16.6176 44.3228H1.12329V45.1575H16.6176V44.3228Z" fill="#0797D5"/>
<path d="M57.3785 78.3343L57.002 78.1755L10.9121 58.7502L30.0174 11.1162L30.3939 11.2751L76.4848 30.7003L57.3785 78.3343ZM11.9761 58.2939L56.9354 77.2426L75.4209 31.1555L30.4615 12.2068L11.9761 58.2939Z" fill="#0797D5"/>
<path d="M60.5276 85.0174L57.5649 77.7415L56.8124 78.0634L59.775 85.3394L60.5276 85.0174Z" fill="#0797D5"/>
<path d="M30.5736 11.4287L27.6118 4.15283L26.8593 4.47472L29.8211 11.7506L30.5736 11.4287Z" fill="#0797D5"/>
<path d="M83.285 28.2649L82.9712 27.4934L75.8725 30.5279L76.1863 31.2993L83.285 28.2649Z" fill="#0797D5"/>
<path d="M11.5069 58.9392L11.1931 58.1689L4.09586 61.2065L4.40962 61.9768L11.5069 58.9392Z" fill="#0797D5"/>
<path d="M44.1368 71.7671H43.3235V88.6593H44.1368V71.7671Z" fill="#0797D5"/>
<path d="M74.1591 75.305L62.7283 63.4409L62.1481 64.0282L73.579 75.8923L74.1591 75.305Z" fill="#0797D5"/>
<path d="M25.0402 64.8065L24.4702 64.2087L13.2986 75.4009L13.8686 75.9986L25.0402 64.8065Z" fill="#0797D5"/>
<path d="M86.3422 44.3228H70.8489V45.1575H86.3422V44.3228Z" fill="#0797D5"/>
<path d="M13.9043 13.8958L13.0977 13.7888L10.8994 31.2062L11.706 31.3131L13.9043 13.8958Z" fill="#0797D5"/>
<path d="M11.622 31.5522L10.9741 31.0447L0.896849 44.5922L1.54471 45.0998L11.622 31.5522Z" fill="#0797D5"/>
<path d="M11.6583 58.3019L1.53711 44.5566L0.887527 45.0618L11.0087 58.807L11.6583 58.3019Z" fill="#0797D5"/>
<path d="M13.9708 75.6248L11.749 58.5083L10.9428 58.6183L13.1645 75.7348L13.9708 75.6248Z" fill="#0797D5"/>
<path d="M30.0423 77.2716L13.6309 75.2571L13.5339 76.0871L29.9454 78.1016L30.0423 77.2716Z" fill="#0797D5"/>
<path d="M44.1161 88.0759L30.2498 77.3281L29.758 77.9948L43.6244 88.7425L44.1161 88.0759Z" fill="#0797D5"/>
<path d="M57.434 78.2257L56.9351 77.5632L43.5995 88.1161L44.0984 88.7786L57.434 78.2257Z" fill="#0797D5"/>
<path d="M73.8876 75.8082L73.772 74.9829L57.1431 77.43L57.2587 78.2553L73.8876 75.8082Z" fill="#0797D5"/>
<path d="M76.2494 58.816L75.4424 58.7122L73.4043 75.3619L74.2113 75.4657L76.2494 58.816Z" fill="#0797D5"/>
<path d="M86.0698 45.0476L85.4104 44.5559L75.5007 58.5218L76.1602 59.0135L86.0698 45.0476Z" fill="#0797D5"/>
<path d="M86.0788 44.563L76.3508 30.6553L75.6882 31.1423L85.4161 45.05L86.0788 44.563Z" fill="#0797D5"/>
<path d="M76.4092 30.8439L74.1873 13.7263L73.3809 13.8363L75.6029 30.9538L76.4092 30.8439Z" fill="#0797D5"/>
<path d="M73.85 13.3507L57.3687 11.165L57.2642 11.993L73.7455 14.1787L73.85 13.3507Z" fill="#0797D5"/>
<path d="M57.5961 11.249L43.7998 0.675537L43.3116 1.34494L57.1078 11.9184L57.5961 11.249Z" fill="#0797D5"/>
<path d="M43.8053 1.34673L43.2974 0.692871L30.2128 11.3725L30.7207 12.0263L43.8053 1.34673Z" fill="#0797D5"/>
<path d="M30.5064 12.1344L30.406 11.3059L13.4599 13.4642L13.5603 14.2927L30.5064 12.1344Z" fill="#0797D5"/>
</svg>
